<mxfile host="app.diagrams.net" modified="2023-12-22T07:20:11.553Z" agent="Mozilla/5.0 (Macintosh; Intel Mac OS X 10_15_7) AppleWebKit/537.36 (KHTML, like Gecko) Chrome/120.0.0.0 Safari/537.36" etag="WILoLhrdeondSP462ctd" version="22.1.11" type="github">
  <diagram id="C5RBs43oDa-KdzZeNtuy" name="Page-1">
    <mxGraphModel dx="2483" dy="1093" grid="1" gridSize="10" guides="1" tooltips="1" connect="1" arrows="1" fold="1" page="1" pageScale="1" pageWidth="827" pageHeight="1169" math="0" shadow="0">
      <root>
        <mxCell id="WIyWlLk6GJQsqaUBKTNV-0" />
        <mxCell id="WIyWlLk6GJQsqaUBKTNV-1" parent="WIyWlLk6GJQsqaUBKTNV-0" />
        <mxCell id="WIyWlLk6GJQsqaUBKTNV-2" value="" style="rounded=0;html=1;jettySize=auto;orthogonalLoop=1;fontSize=11;endArrow=block;endFill=0;endSize=8;strokeWidth=1;shadow=0;labelBackgroundColor=none;edgeStyle=orthogonalEdgeStyle;" parent="WIyWlLk6GJQsqaUBKTNV-1" source="WIyWlLk6GJQsqaUBKTNV-3" target="WIyWlLk6GJQsqaUBKTNV-6" edge="1">
          <mxGeometry relative="1" as="geometry" />
        </mxCell>
        <mxCell id="WIyWlLk6GJQsqaUBKTNV-3" value="新购操作（用户）" style="rounded=1;whiteSpace=wrap;html=1;fontSize=12;glass=0;strokeWidth=1;shadow=0;" parent="WIyWlLk6GJQsqaUBKTNV-1" vertex="1">
          <mxGeometry x="160" y="80" width="120" height="40" as="geometry" />
        </mxCell>
        <mxCell id="WIyWlLk6GJQsqaUBKTNV-4" value="Yes" style="rounded=0;html=1;jettySize=auto;orthogonalLoop=1;fontSize=11;endArrow=block;endFill=0;endSize=8;strokeWidth=1;shadow=0;labelBackgroundColor=none;edgeStyle=orthogonalEdgeStyle;" parent="WIyWlLk6GJQsqaUBKTNV-1" source="WIyWlLk6GJQsqaUBKTNV-6" target="WIyWlLk6GJQsqaUBKTNV-10" edge="1">
          <mxGeometry y="20" relative="1" as="geometry">
            <mxPoint as="offset" />
          </mxGeometry>
        </mxCell>
        <mxCell id="WIyWlLk6GJQsqaUBKTNV-5" value="No" style="edgeStyle=orthogonalEdgeStyle;rounded=0;html=1;jettySize=auto;orthogonalLoop=1;fontSize=11;endArrow=block;endFill=0;endSize=8;strokeWidth=1;shadow=0;labelBackgroundColor=none;" parent="WIyWlLk6GJQsqaUBKTNV-1" source="WIyWlLk6GJQsqaUBKTNV-6" target="WIyWlLk6GJQsqaUBKTNV-7" edge="1">
          <mxGeometry y="10" relative="1" as="geometry">
            <mxPoint as="offset" />
          </mxGeometry>
        </mxCell>
        <mxCell id="WIyWlLk6GJQsqaUBKTNV-6" value="Lamp&lt;br&gt;plugged in?" style="rhombus;whiteSpace=wrap;html=1;shadow=0;fontFamily=Helvetica;fontSize=12;align=center;strokeWidth=1;spacing=6;spacingTop=-4;" parent="WIyWlLk6GJQsqaUBKTNV-1" vertex="1">
          <mxGeometry x="170" y="170" width="100" height="80" as="geometry" />
        </mxCell>
        <mxCell id="WIyWlLk6GJQsqaUBKTNV-7" value="Plug in lamp" style="rounded=1;whiteSpace=wrap;html=1;fontSize=12;glass=0;strokeWidth=1;shadow=0;" parent="WIyWlLk6GJQsqaUBKTNV-1" vertex="1">
          <mxGeometry x="320" y="190" width="120" height="40" as="geometry" />
        </mxCell>
        <mxCell id="WIyWlLk6GJQsqaUBKTNV-8" value="No" style="rounded=0;html=1;jettySize=auto;orthogonalLoop=1;fontSize=11;endArrow=block;endFill=0;endSize=8;strokeWidth=1;shadow=0;labelBackgroundColor=none;edgeStyle=orthogonalEdgeStyle;" parent="WIyWlLk6GJQsqaUBKTNV-1" source="WIyWlLk6GJQsqaUBKTNV-10" target="WIyWlLk6GJQsqaUBKTNV-11" edge="1">
          <mxGeometry x="0.3333" y="20" relative="1" as="geometry">
            <mxPoint as="offset" />
          </mxGeometry>
        </mxCell>
        <mxCell id="WIyWlLk6GJQsqaUBKTNV-9" value="Yes" style="edgeStyle=orthogonalEdgeStyle;rounded=0;html=1;jettySize=auto;orthogonalLoop=1;fontSize=11;endArrow=block;endFill=0;endSize=8;strokeWidth=1;shadow=0;labelBackgroundColor=none;" parent="WIyWlLk6GJQsqaUBKTNV-1" source="WIyWlLk6GJQsqaUBKTNV-10" target="WIyWlLk6GJQsqaUBKTNV-12" edge="1">
          <mxGeometry y="10" relative="1" as="geometry">
            <mxPoint as="offset" />
          </mxGeometry>
        </mxCell>
        <mxCell id="WIyWlLk6GJQsqaUBKTNV-10" value="Bulb&lt;br&gt;burned out?" style="rhombus;whiteSpace=wrap;html=1;shadow=0;fontFamily=Helvetica;fontSize=12;align=center;strokeWidth=1;spacing=6;spacingTop=-4;" parent="WIyWlLk6GJQsqaUBKTNV-1" vertex="1">
          <mxGeometry x="170" y="290" width="100" height="80" as="geometry" />
        </mxCell>
        <mxCell id="WIyWlLk6GJQsqaUBKTNV-11" value="Repair Lamp" style="rounded=1;whiteSpace=wrap;html=1;fontSize=12;glass=0;strokeWidth=1;shadow=0;" parent="WIyWlLk6GJQsqaUBKTNV-1" vertex="1">
          <mxGeometry x="160" y="430" width="120" height="40" as="geometry" />
        </mxCell>
        <mxCell id="WIyWlLk6GJQsqaUBKTNV-12" value="Replace Bulb" style="rounded=1;whiteSpace=wrap;html=1;fontSize=12;glass=0;strokeWidth=1;shadow=0;" parent="WIyWlLk6GJQsqaUBKTNV-1" vertex="1">
          <mxGeometry x="320" y="310" width="120" height="40" as="geometry" />
        </mxCell>
        <mxCell id="LMd1qXZVv6Ur84xknYHX-2" value="" style="edgeStyle=orthogonalEdgeStyle;rounded=0;orthogonalLoop=1;jettySize=auto;html=1;" edge="1" parent="WIyWlLk6GJQsqaUBKTNV-1" source="LMd1qXZVv6Ur84xknYHX-0" target="LMd1qXZVv6Ur84xknYHX-1">
          <mxGeometry relative="1" as="geometry" />
        </mxCell>
        <mxCell id="LMd1qXZVv6Ur84xknYHX-0" value="新购操作（用户）" style="rounded=1;whiteSpace=wrap;html=1;fontSize=12;glass=0;strokeWidth=1;shadow=0;" vertex="1" parent="WIyWlLk6GJQsqaUBKTNV-1">
          <mxGeometry x="-90" y="70" width="120" height="40" as="geometry" />
        </mxCell>
        <mxCell id="LMd1qXZVv6Ur84xknYHX-4" value="" style="edgeStyle=orthogonalEdgeStyle;rounded=0;orthogonalLoop=1;jettySize=auto;html=1;" edge="1" parent="WIyWlLk6GJQsqaUBKTNV-1" source="LMd1qXZVv6Ur84xknYHX-1" target="LMd1qXZVv6Ur84xknYHX-3">
          <mxGeometry relative="1" as="geometry" />
        </mxCell>
        <mxCell id="LMd1qXZVv6Ur84xknYHX-1" value="跳转订单确认页（tqweb）" style="rounded=1;whiteSpace=wrap;html=1;fontSize=12;glass=0;strokeWidth=1;shadow=0;" vertex="1" parent="WIyWlLk6GJQsqaUBKTNV-1">
          <mxGeometry x="-90" y="190" width="120" height="40" as="geometry" />
        </mxCell>
        <mxCell id="LMd1qXZVv6Ur84xknYHX-6" value="" style="edgeStyle=orthogonalEdgeStyle;rounded=0;orthogonalLoop=1;jettySize=auto;html=1;" edge="1" parent="WIyWlLk6GJQsqaUBKTNV-1" source="LMd1qXZVv6Ur84xknYHX-3" target="LMd1qXZVv6Ur84xknYHX-5">
          <mxGeometry relative="1" as="geometry" />
        </mxCell>
        <mxCell id="LMd1qXZVv6Ur84xknYHX-3" value="调用下单并支付接口（计费前台 jssdk）" style="rounded=1;whiteSpace=wrap;html=1;fontSize=12;glass=0;strokeWidth=1;shadow=0;" vertex="1" parent="WIyWlLk6GJQsqaUBKTNV-1">
          <mxGeometry x="-90" y="310" width="120" height="40" as="geometry" />
        </mxCell>
        <mxCell id="LMd1qXZVv6Ur84xknYHX-10" value="" style="edgeStyle=orthogonalEdgeStyle;rounded=0;orthogonalLoop=1;jettySize=auto;html=1;" edge="1" parent="WIyWlLk6GJQsqaUBKTNV-1" source="LMd1qXZVv6Ur84xknYHX-5" target="LMd1qXZVv6Ur84xknYHX-9">
          <mxGeometry relative="1" as="geometry" />
        </mxCell>
        <mxCell id="LMd1qXZVv6Ur84xknYHX-5" value="询价和折扣&lt;br&gt;（计费后台）" style="rounded=1;whiteSpace=wrap;html=1;fontSize=12;glass=0;strokeWidth=1;shadow=0;" vertex="1" parent="WIyWlLk6GJQsqaUBKTNV-1">
          <mxGeometry x="-90" y="430" width="120" height="40" as="geometry" />
        </mxCell>
        <mxCell id="LMd1qXZVv6Ur84xknYHX-8" style="edgeStyle=orthogonalEdgeStyle;rounded=0;orthogonalLoop=1;jettySize=auto;html=1;entryX=0;entryY=0.5;entryDx=0;entryDy=0;" edge="1" parent="WIyWlLk6GJQsqaUBKTNV-1" source="LMd1qXZVv6Ur84xknYHX-7" target="LMd1qXZVv6Ur84xknYHX-5">
          <mxGeometry relative="1" as="geometry" />
        </mxCell>
        <mxCell id="LMd1qXZVv6Ur84xknYHX-7" value="磐石配置&lt;br&gt;计费四层信息" style="rounded=1;whiteSpace=wrap;html=1;fontSize=12;glass=0;strokeWidth=1;shadow=0;" vertex="1" parent="WIyWlLk6GJQsqaUBKTNV-1">
          <mxGeometry x="-340" y="430" width="120" height="40" as="geometry" />
        </mxCell>
        <mxCell id="LMd1qXZVv6Ur84xknYHX-12" value="" style="edgeStyle=orthogonalEdgeStyle;rounded=0;orthogonalLoop=1;jettySize=auto;html=1;" edge="1" parent="WIyWlLk6GJQsqaUBKTNV-1" source="LMd1qXZVv6Ur84xknYHX-9" target="LMd1qXZVv6Ur84xknYHX-11">
          <mxGeometry relative="1" as="geometry" />
        </mxCell>
        <mxCell id="LMd1qXZVv6Ur84xknYHX-9" value="调用新购检查接口&lt;br&gt;（TCIC）" style="rounded=1;whiteSpace=wrap;html=1;fontSize=12;glass=0;strokeWidth=1;shadow=0;" vertex="1" parent="WIyWlLk6GJQsqaUBKTNV-1">
          <mxGeometry x="-90" y="550" width="120" height="40" as="geometry" />
        </mxCell>
        <mxCell id="LMd1qXZVv6Ur84xknYHX-14" value="" style="edgeStyle=orthogonalEdgeStyle;rounded=0;orthogonalLoop=1;jettySize=auto;html=1;" edge="1" parent="WIyWlLk6GJQsqaUBKTNV-1" source="LMd1qXZVv6Ur84xknYHX-11" target="LMd1qXZVv6Ur84xknYHX-13">
          <mxGeometry relative="1" as="geometry" />
        </mxCell>
        <mxCell id="LMd1qXZVv6Ur84xknYHX-11" value="校验余额并冻结&lt;br style=&quot;border-color: var(--border-color);&quot;&gt;（计费后台）" style="rounded=1;whiteSpace=wrap;html=1;fontSize=12;glass=0;strokeWidth=1;shadow=0;" vertex="1" parent="WIyWlLk6GJQsqaUBKTNV-1">
          <mxGeometry x="-90" y="670" width="120" height="40" as="geometry" />
        </mxCell>
        <mxCell id="LMd1qXZVv6Ur84xknYHX-13" value="校验余额并冻结&lt;br style=&quot;border-color: var(--border-color);&quot;&gt;（计费后台）" style="rounded=1;whiteSpace=wrap;html=1;fontSize=12;glass=0;strokeWidth=1;shadow=0;" vertex="1" parent="WIyWlLk6GJQsqaUBKTNV-1">
          <mxGeometry x="-90" y="790" width="120" height="40" as="geometry" />
        </mxCell>
        <mxCell id="LMd1qXZVv6Ur84xknYHX-15" value="业务前台" style="shape=umlLifeline;perimeter=lifelinePerimeter;whiteSpace=wrap;html=1;container=1;dropTarget=0;collapsible=0;recursiveResize=0;outlineConnect=0;portConstraint=eastwest;newEdgeStyle={&quot;edgeStyle&quot;:&quot;elbowEdgeStyle&quot;,&quot;elbow&quot;:&quot;vertical&quot;,&quot;curved&quot;:0,&quot;rounded&quot;:0};" vertex="1" parent="WIyWlLk6GJQsqaUBKTNV-1">
          <mxGeometry x="760" y="80" width="100" height="300" as="geometry" />
        </mxCell>
        <mxCell id="LMd1qXZVv6Ur84xknYHX-16" value="" style="html=1;points=[[0,0,0,0,5],[0,1,0,0,-5],[1,0,0,0,5],[1,1,0,0,-5]];perimeter=orthogonalPerimeter;outlineConnect=0;targetShapes=umlLifeline;portConstraint=eastwest;newEdgeStyle={&quot;curved&quot;:0,&quot;rounded&quot;:0};fillColor=#808080;" vertex="1" parent="LMd1qXZVv6Ur84xknYHX-15">
          <mxGeometry x="45" y="90" width="10" height="120" as="geometry" />
        </mxCell>
        <mxCell id="LMd1qXZVv6Ur84xknYHX-17" value="用户" style="shape=umlLifeline;perimeter=lifelinePerimeter;whiteSpace=wrap;html=1;container=1;dropTarget=0;collapsible=0;recursiveResize=0;outlineConnect=0;portConstraint=eastwest;newEdgeStyle={&quot;edgeStyle&quot;:&quot;elbowEdgeStyle&quot;,&quot;elbow&quot;:&quot;vertical&quot;,&quot;curved&quot;:0,&quot;rounded&quot;:0};" vertex="1" parent="WIyWlLk6GJQsqaUBKTNV-1">
          <mxGeometry x="640" y="80" width="100" height="300" as="geometry" />
        </mxCell>
        <mxCell id="LMd1qXZVv6Ur84xknYHX-23" value="" style="html=1;points=[[0,0,0,0,5],[0,1,0,0,-5],[1,0,0,0,5],[1,1,0,0,-5]];perimeter=orthogonalPerimeter;outlineConnect=0;targetShapes=umlLifeline;portConstraint=eastwest;newEdgeStyle={&quot;curved&quot;:0,&quot;rounded&quot;:0};fillColor=#808080;" vertex="1" parent="LMd1qXZVv6Ur84xknYHX-17">
          <mxGeometry x="45" y="90" width="10" height="120" as="geometry" />
        </mxCell>
        <mxCell id="LMd1qXZVv6Ur84xknYHX-24" value="计费后台" style="shape=umlLifeline;perimeter=lifelinePerimeter;whiteSpace=wrap;html=1;container=1;dropTarget=0;collapsible=0;recursiveResize=0;outlineConnect=0;portConstraint=eastwest;newEdgeStyle={&quot;edgeStyle&quot;:&quot;elbowEdgeStyle&quot;,&quot;elbow&quot;:&quot;vertical&quot;,&quot;curved&quot;:0,&quot;rounded&quot;:0};" vertex="1" parent="WIyWlLk6GJQsqaUBKTNV-1">
          <mxGeometry x="1000" y="80" width="100" height="300" as="geometry" />
        </mxCell>
        <mxCell id="LMd1qXZVv6Ur84xknYHX-25" value="" style="html=1;points=[[0,0,0,0,5],[0,1,0,0,-5],[1,0,0,0,5],[1,1,0,0,-5]];perimeter=orthogonalPerimeter;outlineConnect=0;targetShapes=umlLifeline;portConstraint=eastwest;newEdgeStyle={&quot;curved&quot;:0,&quot;rounded&quot;:0};fillColor=#808080;" vertex="1" parent="LMd1qXZVv6Ur84xknYHX-24">
          <mxGeometry x="45" y="90" width="10" height="120" as="geometry" />
        </mxCell>
        <mxCell id="LMd1qXZVv6Ur84xknYHX-26" value="计费前台" style="shape=umlLifeline;perimeter=lifelinePerimeter;whiteSpace=wrap;html=1;container=1;dropTarget=0;collapsible=0;recursiveResize=0;outlineConnect=0;portConstraint=eastwest;newEdgeStyle={&quot;edgeStyle&quot;:&quot;elbowEdgeStyle&quot;,&quot;elbow&quot;:&quot;vertical&quot;,&quot;curved&quot;:0,&quot;rounded&quot;:0};" vertex="1" parent="WIyWlLk6GJQsqaUBKTNV-1">
          <mxGeometry x="880" y="80" width="100" height="300" as="geometry" />
        </mxCell>
        <mxCell id="LMd1qXZVv6Ur84xknYHX-27" value="" style="html=1;points=[[0,0,0,0,5],[0,1,0,0,-5],[1,0,0,0,5],[1,1,0,0,-5]];perimeter=orthogonalPerimeter;outlineConnect=0;targetShapes=umlLifeline;portConstraint=eastwest;newEdgeStyle={&quot;curved&quot;:0,&quot;rounded&quot;:0};fillColor=#808080;" vertex="1" parent="LMd1qXZVv6Ur84xknYHX-26">
          <mxGeometry x="45" y="90" width="10" height="120" as="geometry" />
        </mxCell>
        <mxCell id="LMd1qXZVv6Ur84xknYHX-30" value="业务后台" style="shape=umlLifeline;perimeter=lifelinePerimeter;whiteSpace=wrap;html=1;container=1;dropTarget=0;collapsible=0;recursiveResize=0;outlineConnect=0;portConstraint=eastwest;newEdgeStyle={&quot;edgeStyle&quot;:&quot;elbowEdgeStyle&quot;,&quot;elbow&quot;:&quot;vertical&quot;,&quot;curved&quot;:0,&quot;rounded&quot;:0};" vertex="1" parent="WIyWlLk6GJQsqaUBKTNV-1">
          <mxGeometry x="1120" y="80" width="100" height="300" as="geometry" />
        </mxCell>
        <mxCell id="LMd1qXZVv6Ur84xknYHX-31" value="" style="html=1;points=[[0,0,0,0,5],[0,1,0,0,-5],[1,0,0,0,5],[1,1,0,0,-5]];perimeter=orthogonalPerimeter;outlineConnect=0;targetShapes=umlLifeline;portConstraint=eastwest;newEdgeStyle={&quot;curved&quot;:0,&quot;rounded&quot;:0};fillColor=#808080;" vertex="1" parent="LMd1qXZVv6Ur84xknYHX-30">
          <mxGeometry x="45" y="90" width="10" height="120" as="geometry" />
        </mxCell>
        <mxCell id="LMd1qXZVv6Ur84xknYHX-55" value="Pool" style="swimlane;childLayout=stackLayout;resizeParent=1;resizeParentMax=0;horizontal=1;startSize=20;horizontalStack=0;html=1;" vertex="1" parent="WIyWlLk6GJQsqaUBKTNV-1">
          <mxGeometry x="500" y="500" width="1110" height="400" as="geometry" />
        </mxCell>
        <mxCell id="LMd1qXZVv6Ur84xknYHX-56" value="新购" style="swimlane;startSize=20;horizontal=0;html=1;" vertex="1" parent="LMd1qXZVv6Ur84xknYHX-55">
          <mxGeometry y="20" width="1110" height="380" as="geometry" />
        </mxCell>
        <mxCell id="LMd1qXZVv6Ur84xknYHX-59" value="用户" style="swimlane;startSize=30;" vertex="1" parent="LMd1qXZVv6Ur84xknYHX-56">
          <mxGeometry x="20" width="200" height="380" as="geometry" />
        </mxCell>
        <mxCell id="LMd1qXZVv6Ur84xknYHX-51" value="Trigger&lt;br&gt;手动" style="rounded=1;whiteSpace=wrap;html=1;fontSize=12;glass=0;strokeWidth=1;shadow=0;" vertex="1" parent="LMd1qXZVv6Ur84xknYHX-59">
          <mxGeometry x="65" y="45" width="70" height="40" as="geometry" />
        </mxCell>
        <mxCell id="LMd1qXZVv6Ur84xknYHX-65" value="业务前台" style="swimlane;startSize=30;" vertex="1" parent="LMd1qXZVv6Ur84xknYHX-56">
          <mxGeometry x="220" width="200" height="380" as="geometry" />
        </mxCell>
        <mxCell id="LMd1qXZVv6Ur84xknYHX-77" value="新购操作" style="rounded=1;whiteSpace=wrap;html=1;fontSize=12;glass=0;strokeWidth=1;shadow=0;" vertex="1" parent="LMd1qXZVv6Ur84xknYHX-65">
          <mxGeometry x="47.5" y="45" width="105" height="40" as="geometry" />
        </mxCell>
        <mxCell id="LMd1qXZVv6Ur84xknYHX-66" value="计费前台" style="swimlane;startSize=30;" vertex="1" parent="LMd1qXZVv6Ur84xknYHX-56">
          <mxGeometry x="420" width="200" height="380" as="geometry" />
        </mxCell>
        <mxCell id="LMd1qXZVv6Ur84xknYHX-79" value="跳转订单确认页" style="rounded=1;whiteSpace=wrap;html=1;fontSize=12;glass=0;strokeWidth=1;shadow=0;" vertex="1" parent="LMd1qXZVv6Ur84xknYHX-66">
          <mxGeometry x="47.5" y="45" width="105" height="40" as="geometry" />
        </mxCell>
        <mxCell id="LMd1qXZVv6Ur84xknYHX-67" value="计费后台" style="swimlane;startSize=30;" vertex="1" parent="LMd1qXZVv6Ur84xknYHX-56">
          <mxGeometry x="620" width="200" height="380" as="geometry" />
        </mxCell>
        <mxCell id="LMd1qXZVv6Ur84xknYHX-81" value="调用下单并支付&lt;br&gt;接口" style="rounded=1;whiteSpace=wrap;html=1;fontSize=12;glass=0;strokeWidth=1;shadow=0;" vertex="1" parent="LMd1qXZVv6Ur84xknYHX-67">
          <mxGeometry x="44.38" y="45" width="111.25" height="40" as="geometry" />
        </mxCell>
        <mxCell id="LMd1qXZVv6Ur84xknYHX-85" value="校验余额并冻结" style="rounded=1;whiteSpace=wrap;html=1;fontSize=12;glass=0;strokeWidth=1;shadow=0;" vertex="1" parent="LMd1qXZVv6Ur84xknYHX-67">
          <mxGeometry x="44.37000000000011" y="140" width="111.25" height="40" as="geometry" />
        </mxCell>
        <mxCell id="LMd1qXZVv6Ur84xknYHX-68" value="业务后台" style="swimlane;startSize=30;" vertex="1" parent="LMd1qXZVv6Ur84xknYHX-56">
          <mxGeometry x="820" width="290" height="380" as="geometry" />
        </mxCell>
        <mxCell id="LMd1qXZVv6Ur84xknYHX-83" value="调用新购检查接口" style="rounded=1;whiteSpace=wrap;html=1;fontSize=12;glass=0;strokeWidth=1;shadow=0;" vertex="1" parent="LMd1qXZVv6Ur84xknYHX-68">
          <mxGeometry x="44.37000000000012" y="45" width="111.25" height="40" as="geometry" />
        </mxCell>
        <mxCell id="LMd1qXZVv6Ur84xknYHX-87" value="调用发货接口" style="rounded=1;whiteSpace=wrap;html=1;fontSize=12;glass=0;strokeWidth=1;shadow=0;" vertex="1" parent="LMd1qXZVv6Ur84xknYHX-68">
          <mxGeometry x="44.37000000000012" y="140" width="111.25" height="40" as="geometry" />
        </mxCell>
        <mxCell id="LMd1qXZVv6Ur84xknYHX-94" value="查询资源详情接口" style="rounded=1;whiteSpace=wrap;html=1;fontSize=12;glass=0;strokeWidth=1;shadow=0;" vertex="1" parent="LMd1qXZVv6Ur84xknYHX-68">
          <mxGeometry x="44.37000000000012" y="320" width="111.25" height="40" as="geometry" />
        </mxCell>
        <mxCell id="LMd1qXZVv6Ur84xknYHX-99" value="createResource" style="text;html=1;strokeColor=none;fillColor=none;align=center;verticalAlign=middle;whiteSpace=wrap;rounded=0;" vertex="1" parent="LMd1qXZVv6Ur84xknYHX-68">
          <mxGeometry x="190" y="145" width="60" height="30" as="geometry" />
        </mxCell>
        <mxCell id="LMd1qXZVv6Ur84xknYHX-100" value="queryFlow" style="text;html=1;strokeColor=none;fillColor=none;align=center;verticalAlign=middle;whiteSpace=wrap;rounded=0;" vertex="1" parent="LMd1qXZVv6Ur84xknYHX-68">
          <mxGeometry x="190" y="237" width="60" height="30" as="geometry" />
        </mxCell>
        <mxCell id="LMd1qXZVv6Ur84xknYHX-101" value="queryResource" style="text;html=1;strokeColor=none;fillColor=none;align=center;verticalAlign=middle;whiteSpace=wrap;rounded=0;" vertex="1" parent="LMd1qXZVv6Ur84xknYHX-68">
          <mxGeometry x="190" y="325" width="60" height="30" as="geometry" />
        </mxCell>
        <mxCell id="LMd1qXZVv6Ur84xknYHX-98" value="checkCreate" style="text;html=1;strokeColor=none;fillColor=none;align=center;verticalAlign=middle;whiteSpace=wrap;rounded=0;" vertex="1" parent="LMd1qXZVv6Ur84xknYHX-68">
          <mxGeometry x="190" y="50" width="60" height="30" as="geometry" />
        </mxCell>
        <mxCell id="LMd1qXZVv6Ur84xknYHX-78" style="edgeStyle=orthogonalEdgeStyle;rounded=0;orthogonalLoop=1;jettySize=auto;html=1;entryX=0;entryY=0.5;entryDx=0;entryDy=0;" edge="1" parent="LMd1qXZVv6Ur84xknYHX-56" source="LMd1qXZVv6Ur84xknYHX-51" target="LMd1qXZVv6Ur84xknYHX-77">
          <mxGeometry relative="1" as="geometry" />
        </mxCell>
        <mxCell id="LMd1qXZVv6Ur84xknYHX-80" style="edgeStyle=orthogonalEdgeStyle;rounded=0;orthogonalLoop=1;jettySize=auto;html=1;entryX=0;entryY=0.5;entryDx=0;entryDy=0;" edge="1" parent="LMd1qXZVv6Ur84xknYHX-56" source="LMd1qXZVv6Ur84xknYHX-77" target="LMd1qXZVv6Ur84xknYHX-79">
          <mxGeometry relative="1" as="geometry" />
        </mxCell>
        <mxCell id="LMd1qXZVv6Ur84xknYHX-82" style="edgeStyle=orthogonalEdgeStyle;rounded=0;orthogonalLoop=1;jettySize=auto;html=1;" edge="1" parent="LMd1qXZVv6Ur84xknYHX-56" source="LMd1qXZVv6Ur84xknYHX-79" target="LMd1qXZVv6Ur84xknYHX-81">
          <mxGeometry relative="1" as="geometry" />
        </mxCell>
        <mxCell id="LMd1qXZVv6Ur84xknYHX-84" style="edgeStyle=orthogonalEdgeStyle;rounded=0;orthogonalLoop=1;jettySize=auto;html=1;entryX=0;entryY=0.5;entryDx=0;entryDy=0;" edge="1" parent="LMd1qXZVv6Ur84xknYHX-56" source="LMd1qXZVv6Ur84xknYHX-81" target="LMd1qXZVv6Ur84xknYHX-83">
          <mxGeometry relative="1" as="geometry" />
        </mxCell>
        <mxCell id="LMd1qXZVv6Ur84xknYHX-86" style="edgeStyle=orthogonalEdgeStyle;rounded=0;orthogonalLoop=1;jettySize=auto;html=1;entryX=0.5;entryY=0;entryDx=0;entryDy=0;" edge="1" parent="LMd1qXZVv6Ur84xknYHX-56" source="LMd1qXZVv6Ur84xknYHX-83" target="LMd1qXZVv6Ur84xknYHX-85">
          <mxGeometry relative="1" as="geometry">
            <Array as="points">
              <mxPoint x="920" y="110" />
              <mxPoint x="720" y="110" />
            </Array>
          </mxGeometry>
        </mxCell>
        <mxCell id="LMd1qXZVv6Ur84xknYHX-88" style="edgeStyle=orthogonalEdgeStyle;rounded=0;orthogonalLoop=1;jettySize=auto;html=1;entryX=0;entryY=0.5;entryDx=0;entryDy=0;" edge="1" parent="LMd1qXZVv6Ur84xknYHX-56" source="LMd1qXZVv6Ur84xknYHX-85" target="LMd1qXZVv6Ur84xknYHX-87">
          <mxGeometry relative="1" as="geometry" />
        </mxCell>
        <mxCell id="LMd1qXZVv6Ur84xknYHX-57" value="退款" style="swimlane;startSize=20;horizontal=0;html=1;" vertex="1" parent="WIyWlLk6GJQsqaUBKTNV-1">
          <mxGeometry x="500" y="900" width="1110" height="430" as="geometry" />
        </mxCell>
        <mxCell id="LMd1qXZVv6Ur84xknYHX-60" value="" style="swimlane;startSize=0;" vertex="1" parent="LMd1qXZVv6Ur84xknYHX-57">
          <mxGeometry x="20" width="200" height="430" as="geometry" />
        </mxCell>
        <mxCell id="LMd1qXZVv6Ur84xknYHX-115" value="Trigger&lt;br&gt;手动" style="rounded=1;whiteSpace=wrap;html=1;fontSize=12;glass=0;strokeWidth=1;shadow=0;" vertex="1" parent="LMd1qXZVv6Ur84xknYHX-60">
          <mxGeometry x="65" y="20" width="70" height="40" as="geometry" />
        </mxCell>
        <mxCell id="LMd1qXZVv6Ur84xknYHX-69" value="" style="swimlane;startSize=0;" vertex="1" parent="LMd1qXZVv6Ur84xknYHX-57">
          <mxGeometry x="220" width="200" height="430" as="geometry" />
        </mxCell>
        <mxCell id="LMd1qXZVv6Ur84xknYHX-70" value="" style="swimlane;startSize=0;" vertex="1" parent="LMd1qXZVv6Ur84xknYHX-57">
          <mxGeometry x="420" width="200" height="430" as="geometry" />
        </mxCell>
        <mxCell id="LMd1qXZVv6Ur84xknYHX-71" value="" style="swimlane;startSize=0;" vertex="1" parent="LMd1qXZVv6Ur84xknYHX-57">
          <mxGeometry x="620" width="200" height="430" as="geometry" />
        </mxCell>
        <mxCell id="LMd1qXZVv6Ur84xknYHX-72" value="" style="swimlane;startSize=0;" vertex="1" parent="LMd1qXZVv6Ur84xknYHX-57">
          <mxGeometry x="820" width="290" height="430" as="geometry" />
        </mxCell>
        <mxCell id="LMd1qXZVv6Ur84xknYHX-121" style="edgeStyle=orthogonalEdgeStyle;rounded=0;orthogonalLoop=1;jettySize=auto;html=1;entryX=0.5;entryY=0;entryDx=0;entryDy=0;" edge="1" parent="LMd1qXZVv6Ur84xknYHX-72" source="LMd1qXZVv6Ur84xknYHX-116" target="LMd1qXZVv6Ur84xknYHX-119">
          <mxGeometry relative="1" as="geometry" />
        </mxCell>
        <mxCell id="LMd1qXZVv6Ur84xknYHX-116" value="查询资源详情接口" style="rounded=1;whiteSpace=wrap;html=1;fontSize=12;glass=0;strokeWidth=1;shadow=0;" vertex="1" parent="LMd1qXZVv6Ur84xknYHX-72">
          <mxGeometry x="50.37000000000012" y="20" width="111.25" height="40" as="geometry" />
        </mxCell>
        <mxCell id="LMd1qXZVv6Ur84xknYHX-117" value="queryResource" style="text;html=1;strokeColor=none;fillColor=none;align=center;verticalAlign=middle;whiteSpace=wrap;rounded=0;" vertex="1" parent="LMd1qXZVv6Ur84xknYHX-72">
          <mxGeometry x="196" y="25" width="60" height="30" as="geometry" />
        </mxCell>
        <mxCell id="LMd1qXZVv6Ur84xknYHX-119" value="&lt;div&gt;调用查询套餐包&lt;br&gt;已使用量接口&lt;/div&gt;" style="rounded=1;whiteSpace=wrap;html=1;fontSize=12;glass=0;strokeWidth=1;shadow=0;" vertex="1" parent="LMd1qXZVv6Ur84xknYHX-72">
          <mxGeometry x="50.37000000000012" y="100" width="111.25" height="40" as="geometry" />
        </mxCell>
        <mxCell id="LMd1qXZVv6Ur84xknYHX-120" value="getUsedamount" style="text;html=1;strokeColor=none;fillColor=none;align=center;verticalAlign=middle;whiteSpace=wrap;rounded=0;" vertex="1" parent="LMd1qXZVv6Ur84xknYHX-72">
          <mxGeometry x="196" y="105" width="60" height="30" as="geometry" />
        </mxCell>
        <mxCell id="LMd1qXZVv6Ur84xknYHX-118" style="edgeStyle=orthogonalEdgeStyle;rounded=0;orthogonalLoop=1;jettySize=auto;html=1;entryX=0;entryY=0.5;entryDx=0;entryDy=0;" edge="1" parent="LMd1qXZVv6Ur84xknYHX-57" source="LMd1qXZVv6Ur84xknYHX-115" target="LMd1qXZVv6Ur84xknYHX-116">
          <mxGeometry relative="1" as="geometry" />
        </mxCell>
        <mxCell id="LMd1qXZVv6Ur84xknYHX-58" value="资源对账" style="swimlane;startSize=20;horizontal=0;html=1;" vertex="1" parent="WIyWlLk6GJQsqaUBKTNV-1">
          <mxGeometry x="500" y="1330" width="1110" height="250" as="geometry" />
        </mxCell>
        <mxCell id="LMd1qXZVv6Ur84xknYHX-61" value="" style="swimlane;startSize=0;" vertex="1" parent="LMd1qXZVv6Ur84xknYHX-58">
          <mxGeometry x="20" width="200" height="250" as="geometry" />
        </mxCell>
        <mxCell id="LMd1qXZVv6Ur84xknYHX-73" value="" style="swimlane;startSize=0;" vertex="1" parent="LMd1qXZVv6Ur84xknYHX-58">
          <mxGeometry x="220" width="200" height="250" as="geometry" />
        </mxCell>
        <mxCell id="LMd1qXZVv6Ur84xknYHX-74" value="" style="swimlane;startSize=0;" vertex="1" parent="LMd1qXZVv6Ur84xknYHX-58">
          <mxGeometry x="420" width="200" height="250" as="geometry" />
        </mxCell>
        <mxCell id="LMd1qXZVv6Ur84xknYHX-75" value="" style="swimlane;startSize=0;" vertex="1" parent="LMd1qXZVv6Ur84xknYHX-58">
          <mxGeometry x="620" width="200" height="250" as="geometry" />
        </mxCell>
        <mxCell id="LMd1qXZVv6Ur84xknYHX-102" value="Trigger&lt;br&gt;每日" style="rounded=1;whiteSpace=wrap;html=1;fontSize=12;glass=0;strokeWidth=1;shadow=0;" vertex="1" parent="LMd1qXZVv6Ur84xknYHX-75">
          <mxGeometry x="65" y="20" width="70" height="40" as="geometry" />
        </mxCell>
        <mxCell id="LMd1qXZVv6Ur84xknYHX-76" value="" style="swimlane;startSize=0;" vertex="1" parent="LMd1qXZVv6Ur84xknYHX-58">
          <mxGeometry x="820" width="290" height="250" as="geometry">
            <mxRectangle x="820" width="50" height="40" as="alternateBounds" />
          </mxGeometry>
        </mxCell>
        <mxCell id="LMd1qXZVv6Ur84xknYHX-113" style="edgeStyle=orthogonalEdgeStyle;rounded=0;orthogonalLoop=1;jettySize=auto;html=1;" edge="1" parent="LMd1qXZVv6Ur84xknYHX-76" source="LMd1qXZVv6Ur84xknYHX-103" target="LMd1qXZVv6Ur84xknYHX-106">
          <mxGeometry relative="1" as="geometry" />
        </mxCell>
        <mxCell id="LMd1qXZVv6Ur84xknYHX-103" value="查询所有用户" style="rounded=1;whiteSpace=wrap;html=1;fontSize=12;glass=0;strokeWidth=1;shadow=0;" vertex="1" parent="LMd1qXZVv6Ur84xknYHX-76">
          <mxGeometry x="50" y="20" width="111.25" height="40" as="geometry" />
        </mxCell>
        <mxCell id="LMd1qXZVv6Ur84xknYHX-105" value="getAllAppIds" style="text;html=1;strokeColor=none;fillColor=none;align=center;verticalAlign=middle;whiteSpace=wrap;rounded=0;" vertex="1" parent="LMd1qXZVv6Ur84xknYHX-76">
          <mxGeometry x="190" y="25" width="60" height="30" as="geometry" />
        </mxCell>
        <mxCell id="LMd1qXZVv6Ur84xknYHX-114" style="edgeStyle=orthogonalEdgeStyle;rounded=0;orthogonalLoop=1;jettySize=auto;html=1;" edge="1" parent="LMd1qXZVv6Ur84xknYHX-76" source="LMd1qXZVv6Ur84xknYHX-106" target="LMd1qXZVv6Ur84xknYHX-108">
          <mxGeometry relative="1" as="geometry" />
        </mxCell>
        <mxCell id="LMd1qXZVv6Ur84xknYHX-106" value="查询用户资源" style="rounded=1;whiteSpace=wrap;html=1;fontSize=12;glass=0;strokeWidth=1;shadow=0;" vertex="1" parent="LMd1qXZVv6Ur84xknYHX-76">
          <mxGeometry x="50.37000000000012" y="100" width="111.25" height="40" as="geometry" />
        </mxCell>
        <mxCell id="LMd1qXZVv6Ur84xknYHX-107" value="getUserResources" style="text;html=1;strokeColor=none;fillColor=none;align=center;verticalAlign=middle;whiteSpace=wrap;rounded=0;" vertex="1" parent="LMd1qXZVv6Ur84xknYHX-76">
          <mxGeometry x="190" y="105" width="60" height="30" as="geometry" />
        </mxCell>
        <mxCell id="LMd1qXZVv6Ur84xknYHX-108" value="查询资源详情" style="rounded=1;whiteSpace=wrap;html=1;fontSize=12;glass=0;strokeWidth=1;shadow=0;" vertex="1" parent="LMd1qXZVv6Ur84xknYHX-76">
          <mxGeometry x="50" y="180" width="111.25" height="40" as="geometry" />
        </mxCell>
        <mxCell id="LMd1qXZVv6Ur84xknYHX-112" value="queryResource" style="text;html=1;strokeColor=none;fillColor=none;align=center;verticalAlign=middle;whiteSpace=wrap;rounded=0;" vertex="1" parent="LMd1qXZVv6Ur84xknYHX-76">
          <mxGeometry x="190" y="185" width="60" height="30" as="geometry" />
        </mxCell>
        <mxCell id="LMd1qXZVv6Ur84xknYHX-104" style="edgeStyle=orthogonalEdgeStyle;rounded=0;orthogonalLoop=1;jettySize=auto;html=1;entryX=0;entryY=0.5;entryDx=0;entryDy=0;" edge="1" parent="LMd1qXZVv6Ur84xknYHX-58" source="LMd1qXZVv6Ur84xknYHX-102" target="LMd1qXZVv6Ur84xknYHX-103">
          <mxGeometry relative="1" as="geometry" />
        </mxCell>
        <mxCell id="LMd1qXZVv6Ur84xknYHX-92" style="edgeStyle=orthogonalEdgeStyle;rounded=0;orthogonalLoop=1;jettySize=auto;html=1;entryX=0;entryY=0.5;entryDx=0;entryDy=0;" edge="1" parent="WIyWlLk6GJQsqaUBKTNV-1" source="LMd1qXZVv6Ur84xknYHX-89" target="LMd1qXZVv6Ur84xknYHX-90">
          <mxGeometry relative="1" as="geometry" />
        </mxCell>
        <mxCell id="LMd1qXZVv6Ur84xknYHX-89" value="判断是否为异步" style="rounded=1;whiteSpace=wrap;html=1;fontSize=12;glass=0;strokeWidth=1;shadow=0;dashed=1;dashPattern=8 8;" vertex="1" parent="WIyWlLk6GJQsqaUBKTNV-1">
          <mxGeometry x="1160" y="750" width="111.25" height="40" as="geometry" />
        </mxCell>
        <mxCell id="LMd1qXZVv6Ur84xknYHX-95" style="edgeStyle=orthogonalEdgeStyle;rounded=0;orthogonalLoop=1;jettySize=auto;html=1;entryX=0.5;entryY=0;entryDx=0;entryDy=0;" edge="1" parent="WIyWlLk6GJQsqaUBKTNV-1" source="LMd1qXZVv6Ur84xknYHX-90" target="LMd1qXZVv6Ur84xknYHX-93">
          <mxGeometry relative="1" as="geometry">
            <Array as="points">
              <mxPoint x="1416" y="810" />
              <mxPoint x="1216" y="810" />
            </Array>
          </mxGeometry>
        </mxCell>
        <mxCell id="LMd1qXZVv6Ur84xknYHX-90" value="查询异步发货接口" style="rounded=1;whiteSpace=wrap;html=1;fontSize=12;glass=0;strokeWidth=1;shadow=0;dashed=1;dashPattern=8 8;" vertex="1" parent="WIyWlLk6GJQsqaUBKTNV-1">
          <mxGeometry x="1359.99" y="750" width="111.25" height="40" as="geometry" />
        </mxCell>
        <mxCell id="LMd1qXZVv6Ur84xknYHX-91" style="edgeStyle=orthogonalEdgeStyle;rounded=0;orthogonalLoop=1;jettySize=auto;html=1;entryX=0.5;entryY=0;entryDx=0;entryDy=0;" edge="1" parent="WIyWlLk6GJQsqaUBKTNV-1" source="LMd1qXZVv6Ur84xknYHX-87" target="LMd1qXZVv6Ur84xknYHX-89">
          <mxGeometry relative="1" as="geometry">
            <Array as="points">
              <mxPoint x="1420" y="720" />
              <mxPoint x="1216" y="720" />
            </Array>
          </mxGeometry>
        </mxCell>
        <mxCell id="LMd1qXZVv6Ur84xknYHX-96" style="edgeStyle=orthogonalEdgeStyle;rounded=0;orthogonalLoop=1;jettySize=auto;html=1;" edge="1" parent="WIyWlLk6GJQsqaUBKTNV-1" source="LMd1qXZVv6Ur84xknYHX-93" target="LMd1qXZVv6Ur84xknYHX-94">
          <mxGeometry relative="1" as="geometry" />
        </mxCell>
        <mxCell id="LMd1qXZVv6Ur84xknYHX-93" value="冻结并扣费" style="rounded=1;whiteSpace=wrap;html=1;fontSize=12;glass=0;strokeWidth=1;shadow=0;" vertex="1" parent="WIyWlLk6GJQsqaUBKTNV-1">
          <mxGeometry x="1160" y="840" width="111.25" height="40" as="geometry" />
        </mxCell>
        <mxCell id="LMd1qXZVv6Ur84xknYHX-132" style="edgeStyle=orthogonalEdgeStyle;rounded=0;orthogonalLoop=1;jettySize=auto;html=1;entryX=0.5;entryY=0;entryDx=0;entryDy=0;" edge="1" parent="WIyWlLk6GJQsqaUBKTNV-1" source="LMd1qXZVv6Ur84xknYHX-122" target="LMd1qXZVv6Ur84xknYHX-127">
          <mxGeometry relative="1" as="geometry" />
        </mxCell>
        <mxCell id="LMd1qXZVv6Ur84xknYHX-122" value="查询异步发货接口" style="rounded=1;whiteSpace=wrap;html=1;fontSize=12;glass=0;strokeWidth=1;shadow=0;dashed=1;dashPattern=8 8;" vertex="1" parent="WIyWlLk6GJQsqaUBKTNV-1">
          <mxGeometry x="1370.0000000000002" y="1180" width="111.25" height="40" as="geometry" />
        </mxCell>
        <mxCell id="LMd1qXZVv6Ur84xknYHX-123" value="queryFlow" style="text;html=1;strokeColor=none;fillColor=none;align=center;verticalAlign=middle;whiteSpace=wrap;rounded=0;" vertex="1" parent="WIyWlLk6GJQsqaUBKTNV-1">
          <mxGeometry x="1515.63" y="1185" width="60" height="30" as="geometry" />
        </mxCell>
        <mxCell id="LMd1qXZVv6Ur84xknYHX-134" style="edgeStyle=orthogonalEdgeStyle;rounded=0;orthogonalLoop=1;jettySize=auto;html=1;" edge="1" parent="WIyWlLk6GJQsqaUBKTNV-1" source="LMd1qXZVv6Ur84xknYHX-124" target="LMd1qXZVv6Ur84xknYHX-122">
          <mxGeometry relative="1" as="geometry" />
        </mxCell>
        <mxCell id="LMd1qXZVv6Ur84xknYHX-124" value="判断是否为异步" style="rounded=1;whiteSpace=wrap;html=1;fontSize=12;glass=0;strokeWidth=1;shadow=0;dashed=1;dashPattern=8 8;" vertex="1" parent="WIyWlLk6GJQsqaUBKTNV-1">
          <mxGeometry x="1165.63" y="1180" width="111.25" height="40" as="geometry" />
        </mxCell>
        <mxCell id="LMd1qXZVv6Ur84xknYHX-133" style="edgeStyle=orthogonalEdgeStyle;rounded=0;orthogonalLoop=1;jettySize=auto;html=1;entryX=0.5;entryY=0;entryDx=0;entryDy=0;" edge="1" parent="WIyWlLk6GJQsqaUBKTNV-1" source="LMd1qXZVv6Ur84xknYHX-125" target="LMd1qXZVv6Ur84xknYHX-124">
          <mxGeometry relative="1" as="geometry">
            <Array as="points">
              <mxPoint x="1426" y="1150" />
              <mxPoint x="1221" y="1150" />
            </Array>
          </mxGeometry>
        </mxCell>
        <mxCell id="LMd1qXZVv6Ur84xknYHX-125" value="调用预付费&lt;br&gt;资源隔离接口" style="rounded=1;whiteSpace=wrap;html=1;fontSize=12;glass=0;strokeWidth=1;shadow=0;" vertex="1" parent="WIyWlLk6GJQsqaUBKTNV-1">
          <mxGeometry x="1370.0000000000002" y="1090" width="111.25" height="40" as="geometry" />
        </mxCell>
        <mxCell id="LMd1qXZVv6Ur84xknYHX-126" value="isolateResource" style="text;html=1;strokeColor=none;fillColor=none;align=center;verticalAlign=middle;whiteSpace=wrap;rounded=0;" vertex="1" parent="WIyWlLk6GJQsqaUBKTNV-1">
          <mxGeometry x="1515.63" y="1095" width="60" height="30" as="geometry" />
        </mxCell>
        <mxCell id="LMd1qXZVv6Ur84xknYHX-127" value="查询资源详情接口" style="rounded=1;whiteSpace=wrap;html=1;fontSize=12;glass=0;strokeWidth=1;shadow=0;" vertex="1" parent="WIyWlLk6GJQsqaUBKTNV-1">
          <mxGeometry x="1370.0000000000002" y="1270" width="111.25" height="40" as="geometry" />
        </mxCell>
        <mxCell id="LMd1qXZVv6Ur84xknYHX-128" value="queryResource" style="text;html=1;strokeColor=none;fillColor=none;align=center;verticalAlign=middle;whiteSpace=wrap;rounded=0;" vertex="1" parent="WIyWlLk6GJQsqaUBKTNV-1">
          <mxGeometry x="1515.63" y="1275" width="60" height="30" as="geometry" />
        </mxCell>
        <mxCell id="LMd1qXZVv6Ur84xknYHX-129" style="edgeStyle=orthogonalEdgeStyle;rounded=0;orthogonalLoop=1;jettySize=auto;html=1;entryX=0.5;entryY=0;entryDx=0;entryDy=0;" edge="1" parent="WIyWlLk6GJQsqaUBKTNV-1" source="LMd1qXZVv6Ur84xknYHX-119" target="LMd1qXZVv6Ur84xknYHX-125">
          <mxGeometry relative="1" as="geometry" />
        </mxCell>
      </root>
    </mxGraphModel>
  </diagram>
</mxfile>
